<?xml version="1.0" encoding="utf-8"?>
<!-- Generator: Adobe Illustrator 27.2.0, SVG Export Plug-In . SVG Version: 6.00 Build 0)  -->
<svg version="1.1" id="katman_1" xmlns="http://www.w3.org/2000/svg" xmlns:xlink="http://www.w3.org/1999/xlink" x="0px" y="0px"
	 viewBox="0 0 511 498" style="enable-background:new 0 0 511 498;" xml:space="preserve">
<style type="text/css">
	.st0{opacity:0.35;fill-rule:evenodd;clip-rule:evenodd;fill:#8EC2F2;enable-background:new    ;}
	.st1{opacity:0.4;fill-rule:evenodd;clip-rule:evenodd;fill:#23A6F0;enable-background:new    ;}
</style>
<path class="st0" d="M478.9,174.9c42.4,84.4,50.4,191-35.6,261.3c-88.4,72.3-217.5,69.3-313.8,24.3C39.4,418.5-5.4,331,20.9,239
	C48,144.5,136.8,62.6,247.9,47C355.1,32,438.4,94.4,478.9,174.9z"/>
<path class="st1" d="M308.6,38.7c96.6,20,191.7,79.6,200.5,187.3c9,110.8-69.9,205.9-164.9,250.6c-89,41.8-189.6,21.7-252-54.6
	C28,343.6,11,226.6,63.5,133.6C114.2,43.8,216.3,19.6,308.6,38.7z"/>
</svg>
